<?xml version="1.0" standalone="no"?>
<!DOCTYPE svg PUBLIC "-//W3C//DTD SVG 20010904//EN"
 "http://www.w3.org/TR/2001/REC-SVG-20010904/DTD/svg10.dtd">
<svg version="1.0" xmlns="http://www.w3.org/2000/svg"
 width="219.000000pt" height="198.000000pt" viewBox="0 0 219.000000 198.000000"
 preserveAspectRatio="xMidYMid meet">
<metadata>
Created by potrace 1.14, written by Peter Selinger 2001-2017
</metadata>
<g transform="translate(0.000000,198.000000) scale(0.100000,-0.100000)"
fill="#000000" stroke="none">
<path d="M320 1819 c0 -111 3 -160 11 -157 6 2 24 43 39 92 16 48 46 119 68
157 l40 69 -79 0 -79 0 0 -161z"/>
<path d="M1250 1960 c-6 -11 -8 -20 -6 -20 3 0 10 9 16 20 6 11 8 20 6 20 -3
0 -10 -9 -16 -20z"/>
<path d="M1885 1924 c75 -124 115 -272 115 -427 0 -223 -75 -414 -229 -580
-53 -57 -56 -59 -62 -36 -7 22 -7 22 -8 -6 -1 -16 -10 -55 -21 -85 -24 -72
-19 -75 11 -5 l24 55 88 0 87 0 0 -95 0 -95 60 0 60 0 0 665 0 665 -79 0 -80
0 34 -56z"/>
<path d="M1595 1940 c9 -16 18 -30 21 -30 2 0 -2 14 -11 30 -9 17 -18 30 -21
30 -2 0 2 -13 11 -30z"/>
<path d="M1420 1895 c-25 -7 -56 -16 -70 -20 -14 -4 -42 -15 -62 -26 -49 -26
-109 -34 -248 -33 -111 1 -118 2 -199 39 -110 49 -114 46 -121 -71 l-5 -89
-27 3 c-30 3 -48 -16 -27 -29 9 -5 11 -11 4 -18 -7 -7 -24 -5 -53 4 -35 13
-66 13 -185 5 -123 -9 -150 -14 -203 -39 -166 -78 -148 -176 46 -250 47 -18
88 -39 92 -46 5 -8 38 -12 109 -13 99 0 103 -1 131 -29 l29 -29 -85 -68 c-47
-38 -88 -77 -91 -87 -4 -11 -10 -19 -15 -19 -11 0 -66 134 -84 201 -7 29 -18
55 -25 57 -8 3 -11 -86 -11 -342 l0 -346 50 0 50 0 0 96 0 96 48 -5 c58 -5
158 -47 177 -74 13 -18 12 -21 -11 -31 -48 -23 -55 -106 -11 -137 25 -18 63
-20 73 -4 4 8 -1 9 -15 4 -38 -12 -71 19 -71 65 0 32 5 43 26 57 22 14 27 15
34 2 5 -8 16 -23 25 -34 16 -19 17 -19 3 5 -8 14 -22 44 -31 67 -14 36 -14 43
-3 43 15 0 92 -133 103 -178 l6 -27 -24 20 -23 20 15 -24 c9 -14 35 -41 60
-60 24 -20 38 -28 30 -19 -7 10 -14 37 -16 61 -4 65 -32 152 -60 185 -28 34
-32 52 -11 52 8 0 18 4 21 10 4 6 -11 7 -40 3 -36 -4 -50 -2 -66 13 -16 14
-22 15 -28 5 -7 -10 -13 -11 -30 -2 -31 17 -26 29 16 40 55 16 86 14 150 -9
66 -23 94 -25 111 -8 19 19 14 33 -6 15 -15 -14 -21 -14 -42 -2 -14 8 -40 22
-57 31 -45 24 -49 47 -19 99 32 55 33 70 1 91 -25 17 -62 16 -163 -2 -20 -4
-32 -2 -32 4 0 6 20 39 44 74 50 73 80 130 90 173 l7 30 -20 -31 c-23 -38 -48
-57 -37 -28 27 66 28 75 12 145 -18 79 -17 82 40 150 53 64 139 127 197 144
53 16 137 20 137 8 0 -5 -16 -19 -35 -31 -37 -26 -58 -53 -70 -92 -4 -16 4 -8
23 21 22 34 42 51 81 68 68 29 116 23 162 -18 19 -18 49 -42 67 -54 17 -12 30
-27 28 -33 -3 -6 3 -11 12 -10 14 1 17 -7 14 -44 l-2 -45 22 26 c13 14 49 36
80 48 32 13 56 27 53 31 -3 4 -30 11 -61 15 -52 6 -55 8 -40 24 9 10 13 21 10
24 -4 4 5 11 19 16 25 10 58 48 93 109 18 31 18 32 -1 51 -18 17 -24 18 -65 6z
m-855 -291 c44 -11 65 -21 65 -31 0 -11 -6 -14 -22 -9 -116 33 -147 38 -210
32 -62 -6 -126 -22 -117 -30 2 -2 31 0 64 4 61 7 131 -6 160 -30 27 -23 15
-30 -48 -30 -66 0 -144 -32 -177 -72 -15 -19 -16 -19 -72 5 -42 19 -59 32 -64
51 -8 32 -1 42 48 67 106 54 258 72 373 43z m-49 -125 c42 -11 61 -29 30 -29
-8 0 -20 -2 -28 -5 -7 -3 -26 6 -43 20 -34 27 -25 30 41 14z m-44 -66 c43 -26
76 -49 73 -51 -3 -3 -39 -4 -82 -3 -74 2 -153 28 -153 50 0 4 11 20 25 35 30
32 30 32 137 -31z m158 -8 c0 -22 -27 -30 -56 -17 -36 17 -29 32 16 32 29 0
40 -4 40 -15z m123 -331 c8 -9 -11 -44 -23 -44 -6 0 -10 11 -10 25 0 23 18 34
33 19z m-243 -18 c0 -8 -7 -17 -16 -20 -22 -9 -13 -79 16 -118 11 -15 16 -28
10 -28 -19 0 -50 64 -50 103 0 41 14 77 30 77 6 0 10 -6 10 -14z"/>
<path d="M190 1522 c-20 -7 -29 -22 -23 -39 4 -9 11 -6 25 13 22 27 21 34 -2
26z"/>
<path d="M1113 1893 c9 -2 25 -2 35 0 9 3 1 5 -18 5 -19 0 -27 -2 -17 -5z"/>
<path d="M1693 1893 c9 -2 25 -2 35 0 9 3 1 5 -18 5 -19 0 -27 -2 -17 -5z"/>
<path d="M1184 1878 c10 -6 22 -6 26 -2 5 5 -3 10 -18 11 -22 1 -24 0 -8 -9z"/>
<path d="M1750 1886 c0 -2 7 -7 16 -10 8 -3 12 -2 9 4 -6 10 -25 14 -25 6z"/>
<path d="M1929 1723 l-24 -28 28 24 c25 23 32 31 24 31 -2 0 -14 -12 -28 -27z"/>
<path d="M599 1683 c-13 -16 -12 -17 4 -4 9 7 17 15 17 17 0 8 -8 3 -21 -13z"/>
<path d="M822 1660 c0 -14 2 -19 5 -12 2 6 2 18 0 25 -3 6 -5 1 -5 -13z"/>
<path d="M1566 1665 c-21 -8 -45 -20 -52 -26 -7 -6 -47 -25 -88 -43 -54 -24
-85 -45 -110 -75 l-36 -43 0 38 c0 50 -10 38 -15 -17 -2 -24 -6 -57 -9 -74
l-6 -30 11 28 c12 31 17 32 42 13 10 -8 27 -12 37 -9 14 4 22 -1 28 -17 8 -22
9 -22 21 9 8 17 17 31 22 31 17 0 9 32 -17 65 l-25 34 43 10 c24 6 78 29 121
52 91 47 182 64 193 35 9 -23 -19 -93 -57 -145 -34 -45 -80 -74 -153 -92 -33
-8 -53 -20 -68 -43 -28 -40 -37 -46 -70 -46 -18 0 -36 11 -58 38 -18 21 -28
28 -24 17 23 -64 35 -157 31 -230 -8 -110 -29 -184 -86 -295 -44 -85 -65 -151
-114 -342 -14 -56 -8 -77 12 -40 12 23 67 171 187 502 32 87 35 104 35 208 0
73 3 112 10 112 6 0 26 7 45 16 19 9 37 14 40 11 3 -3 9 -30 13 -61 10 -72 21
-83 21 -20 1 45 2 48 15 30 8 -11 15 -35 15 -53 0 -18 5 -33 10 -33 6 0 10 14
10 31 0 42 20 33 36 -17 8 -27 12 -32 13 -16 1 12 5 22 10 22 12 0 21 -36 22
-95 l1 -50 10 44 c13 57 4 102 -27 135 -14 15 -25 34 -25 42 0 7 -6 14 -13 14
-7 0 -30 17 -50 38 -42 43 -39 54 23 67 110 23 209 134 213 238 l2 42 -75 2
c-46 1 -90 -4 -114 -12z"/>
<path d="M1808 1673 c6 -2 18 -2 25 0 6 3 1 5 -13 5 -14 0 -19 -2 -12 -5z"/>
<path d="M929 1567 c-30 -34 -64 -75 -75 -92 -16 -25 -9 -22 36 19 30 26 65
68 78 92 12 24 21 44 20 44 -2 -1 -28 -29 -59 -63z"/>
<path d="M712 1593 c-15 -29 -24 -81 -16 -95 5 -7 13 13 20 48 13 63 11 77 -4
47z"/>
<path d="M1531 1591 c-10 -10 -22 -34 -26 -52 -4 -19 -27 -55 -50 -80 -40 -43
-63 -85 -52 -95 2 -3 12 13 21 35 9 25 27 46 45 56 37 19 61 52 61 85 0 14 7
36 16 48 19 27 11 29 -15 3z"/>
<path d="M1095 1474 c-70 -64 -70 -64 -35 -58 63 11 97 24 118 47 19 20 20 26
9 50 -6 15 -14 27 -17 26 -3 0 -36 -29 -75 -65z m75 11 c0 -8 -4 -15 -10 -15
-5 0 -10 7 -10 15 0 8 5 15 10 15 6 0 10 -7 10 -15z"/>
<path d="M1557 1353 c6 -16 5 -17 -13 -3 -19 14 -19 14 0 -8 24 -28 26 -28 26
3 0 14 -4 25 -10 25 -5 0 -6 -8 -3 -17z"/>
<path d="M901 1304 c-11 -15 -21 -36 -21 -48 0 -16 7 -10 26 22 30 50 27 66
-5 26z"/>
<path d="M1240 1221 c0 -70 -26 -173 -60 -241 -16 -32 -61 -105 -100 -164 -78
-117 -106 -185 -115 -279 -6 -71 -5 -70 45 74 28 80 55 133 113 221 97 145
127 223 134 346 4 66 3 92 -6 92 -7 0 -11 -19 -11 -49z"/>
<path d="M1390 1136 c0 -73 -26 -173 -80 -306 -45 -109 -82 -237 -79 -273 0
-7 11 17 23 53 13 36 47 115 75 175 60 126 95 266 84 340 -8 61 -23 68 -23 11z"/>
<path d="M1666 1163 c4 -12 12 -28 20 -34 20 -17 17 2 -6 31 -18 24 -19 24
-14 3z"/>
<path d="M1109 972 c-29 -54 -44 -71 -80 -90 -30 -15 -55 -21 -79 -17 -25 3
-31 2 -20 -5 8 -5 32 -10 53 -10 29 0 37 -4 37 -18 0 -10 -5 -23 -12 -30 -7
-7 -8 -12 -2 -12 15 0 87 111 116 179 15 36 27 66 25 67 -1 2 -18 -27 -38 -64z"/>
<path d="M31 785 c-29 -25 -31 -31 -31 -96 0 -38 5 -100 12 -139 8 -46 9 -74
2 -78 -5 -4 -7 -23 -4 -42 5 -33 7 -30 32 50 15 47 32 112 38 145 13 71 10
177 -6 182 -6 2 -26 -8 -43 -22z"/>
<path d="M542 656 c-2 -71 -5 -91 -19 -102 -19 -14 -6 -19 15 -6 9 6 12 34 9
103 l-3 94 -2 -89z"/>
<path d="M811 714 c-1 -6 10 -44 24 -85 14 -41 24 -85 23 -97 -2 -18 7 -31 37
-52 22 -15 54 -31 70 -34 21 -4 13 2 -22 19 -41 18 -53 29 -54 47 0 23 -78
222 -78 202z"/>
<path d="M1680 710 c-4 -37 3 -106 12 -117 6 -7 17 -13 24 -13 10 0 8 6 -7 21
-27 27 -23 83 6 87 16 2 24 -9 42 -54 l22 -56 -24 -24 c-14 -14 -19 -24 -11
-24 21 0 41 30 64 96 12 34 22 65 22 70 0 17 -18 -12 -30 -49 -14 -43 -22 -40
-40 16 -10 31 -16 37 -40 37 -16 0 -31 6 -33 13 -4 8 -6 7 -7 -3z"/>
<path d="M1632 683 c-5 -10 -6 -38 -2 -63 l6 -45 5 63 c2 34 3 62 2 62 -1 0
-6 -8 -11 -17z"/>
<path d="M1567 594 c-46 -51 -47 -53 -14 -31 32 20 74 73 65 82 -2 2 -25 -21
-51 -51z"/>
<path d="M2145 640 c-11 -4 -54 -20 -95 -36 -41 -15 -111 -44 -155 -64 -44
-21 -98 -43 -120 -49 -22 -7 -67 -22 -100 -34 -45 -16 -89 -22 -178 -25 -77
-2 -117 0 -113 7 4 6 -5 6 -26 0 -18 -5 -103 -9 -188 -9 -85 1 -359 1 -607 1
-446 -1 -453 -1 -453 -21 0 -17 -7 -20 -44 -20 -52 0 -69 -16 -64 -62 3 -32 4
-33 56 -36 l52 -3 0 -40 c0 -21 -4 -39 -9 -39 -5 0 -30 9 -55 20 l-46 19 0
-69 0 -70 50 0 50 0 0 -55 c0 -54 1 -55 29 -55 22 0 31 6 41 30 7 17 17 33 22
36 5 4 3 -8 -6 -24 -21 -41 -21 -42 17 -42 21 0 41 8 52 20 23 26 59 26 85 0
13 -13 33 -20 56 -20 l36 0 -21 35 c-11 19 -17 35 -13 35 5 0 15 -15 24 -33
l16 -33 353 3 c195 2 368 4 384 3 17 0 143 0 280 -1 138 -1 265 2 284 6 24 5
32 4 27 -4 -5 -8 50 -11 208 -11 l216 0 0 217 0 216 -20 -18 c-12 -11 -29 -20
-38 -21 -10 -2 -2 10 21 29 l37 32 0 98 c0 101 -2 105 -45 87z m-1691 -258 c3
-5 -6 -51 -20 -102 -13 -52 -23 -99 -21 -105 2 -5 14 33 27 85 12 52 27 103
32 113 12 22 86 24 94 2 6 -14 8 -14 18 0 8 12 24 15 51 13 35 -3 40 -6 37
-26 l-2 -24 31 26 c49 41 128 27 129 -23 1 -9 7 -1 15 17 13 29 19 33 47 30
28 -2 34 -8 38 -33 l6 -30 11 33 12 32 115 0 c113 0 116 -1 116 -22 l0 -22 16
22 c12 18 24 22 52 20 l37 -3 -2 -80 -3 -80 23 80 c22 77 24 80 55 83 26 3 34
-1 44 -24 l13 -27 5 24 c5 19 13 25 44 27 l39 3 -6 -43 c-4 -24 -9 -54 -12
-68 -3 -14 10 5 30 43 33 63 37 67 70 67 20 0 38 -6 40 -13 3 -6 2 -71 -2
-142 l-8 -130 -38 -3 c-32 -3 -39 0 -44 17 -7 27 -20 27 -28 1 -6 -17 -15 -20
-76 -20 -62 0 -69 2 -69 20 0 26 -16 26 -23 0 -4 -17 -14 -20 -72 -20 -58 0
-68 3 -72 20 -7 25 -19 26 -33 1 -9 -17 -21 -20 -90 -20 -93 0 -91 -4 -60 104
24 84 24 85 5 85 -14 0 -18 -11 -48 -130 l-13 -55 -40 0 c-35 0 -39 3 -44 30
l-6 30 -7 -33 c-6 -31 -9 -33 -44 -30 -34 3 -38 6 -36 28 2 22 2 23 -8 7 -15
-26 -74 -49 -104 -41 -14 3 -32 18 -39 33 l-14 26 -7 -27 -7 -28 -97 0 c-62 0
-101 4 -109 12 -9 9 -12 9 -12 0 0 -14 -245 -18 -254 -4 -5 9 55 250 67 270 9
14 242 18 251 4z m1372 -57 c16 -24 13 -75 -4 -75 -5 0 -7 -13 -4 -30 3 -23
10 -30 26 -30 16 0 30 18 61 78 38 74 41 77 75 77 l35 0 -3 -77 -3 -78 29 0
c39 0 41 -5 30 -50 l-10 -40 -59 0 c-45 0 -60 4 -68 18 -9 16 -10 16 -17 -1
-5 -15 -18 -18 -78 -16 -39 1 -83 -2 -99 -6 -41 -11 -77 16 -77 60 0 22 6 37
17 44 13 7 17 20 14 50 -2 34 2 46 27 71 39 39 84 41 108 5z"/>
<path d="M217 363 c-4 -3 -7 -12 -7 -20 0 -10 25 -13 110 -13 103 0 110 1 110
20 0 19 -7 20 -103 20 -57 0 -107 -3 -110 -7z"/>
<path d="M480 328 c-7 -24 -20 -74 -31 -113 -23 -83 -23 -95 -5 -95 9 0 21 31
36 90 12 50 24 90 27 90 5 0 -5 -119 -13 -158 -4 -19 -1 -23 13 -20 12 2 30
34 55 93 42 100 48 96 18 -13 -24 -86 -24 -82 -6 -82 16 0 16 -2 51 130 31
119 31 122 -1 118 -22 -2 -31 -15 -56 -76 -17 -40 -33 -71 -35 -69 -2 3 0 36
5 76 l8 71 -27 0 c-25 0 -30 -5 -39 -42z"/>
<path d="M712 350 c-47 -44 -81 -154 -63 -203 8 -21 17 -27 41 -27 48 0 69 17
96 73 26 57 33 144 12 165 -18 18 -62 14 -86 -8z m51 -84 c-2 -54 -25 -96 -53
-96 -16 0 -20 7 -20 34 0 43 16 87 38 104 27 20 37 8 35 -42z"/>
<path d="M726 266 c-9 -21 -15 -48 -13 -60 3 -18 6 -15 21 18 9 21 15 48 13
60 -3 18 -6 15 -21 -18z"/>
<path d="M860 328 c-6 -24 -21 -78 -32 -121 -12 -42 -18 -80 -15 -83 16 -16
34 9 47 60 7 32 17 59 21 62 4 2 11 -25 14 -61 7 -58 10 -65 29 -65 19 0 25
13 50 112 16 62 31 119 34 126 2 7 -4 12 -17 12 -20 0 -30 -21 -47 -110 -6
-28 -8 -30 -14 -14 -4 10 -11 43 -15 72 -5 42 -11 52 -26 52 -13 0 -21 -12
-29 -42z"/>
<path d="M1035 355 c-3 -8 -7 -22 -10 -30 -3 -11 3 -15 20 -15 14 0 25 -1 25
-3 0 -3 -38 -141 -46 -169 -4 -13 0 -18 15 -18 21 0 27 14 61 148 9 35 15 42
35 42 14 0 25 3 25 8 0 4 3 17 6 30 6 21 4 22 -60 22 -50 0 -68 -4 -71 -15z"/>
<path d="M1179 269 c-71 -143 -73 -149 -48 -149 12 0 23 8 26 20 4 15 14 20
40 20 30 0 34 -3 28 -20 -5 -16 -2 -20 19 -20 l26 0 0 125 c0 118 -1 125 -20
125 -15 0 -32 -24 -71 -101z m54 -17 c-4 -32 -10 -42 -24 -42 -16 0 -17 4 -9
26 14 36 31 66 35 62 2 -2 1 -22 -2 -46z"/>
<path d="M1326 263 c-15 -60 -29 -116 -32 -125 -4 -13 0 -18 14 -18 16 0 23
11 32 53 19 80 27 88 35 32 10 -74 15 -85 36 -85 10 0 19 2 19 4 0 2 13 55 30
117 35 135 35 129 12 129 -15 0 -22 -13 -32 -57 -19 -87 -27 -94 -35 -32 -9
77 -14 89 -34 89 -15 0 -24 -20 -45 -107z"/>
<path d="M1512 248 c-46 -98 -55 -124 -43 -127 8 -2 22 6 29 18 20 29 72 29
72 1 0 -13 7 -20 20 -20 18 0 20 7 20 88 0 48 3 104 6 125 6 35 5 37 -20 37
-23 0 -31 -12 -84 -122z m64 -4 c-5 -25 -12 -34 -27 -34 -16 0 -18 3 -9 19 5
11 15 32 21 48 14 35 23 15 15 -33z"/>
<path d="M196 284 c-3 -9 -6 -18 -6 -20 0 -2 49 -4 109 -4 100 0 109 2 114 20
5 19 0 20 -103 20 -89 0 -109 -3 -114 -16z"/>
<path d="M1125 278 c-16 -52 -36 -131 -32 -134 2 -2 19 30 39 71 33 68 34 75
17 75 -11 0 -21 -6 -24 -12z"/>
<path d="M177 210 c-5 -20 -2 -21 106 -18 97 3 112 5 115 21 3 15 -7 17 -106
17 -102 0 -110 -1 -115 -20z"/>
<path d="M160 140 c0 -19 7 -20 110 -20 103 0 110 1 110 20 0 19 -7 20 -110
20 -103 0 -110 -1 -110 -20z"/>
<path d="M401 144 c0 -11 3 -14 6 -6 3 7 2 16 -1 19 -3 4 -6 -2 -5 -13z"/>
<path d="M1731 304 c-30 -38 -28 -81 4 -96 18 -8 25 -18 23 -32 -4 -29 -38
-34 -38 -6 0 16 -4 20 -16 16 -9 -3 -18 -6 -20 -6 -2 0 -4 -11 -4 -25 0 -55
75 -52 105 4 23 45 19 70 -15 89 -34 19 -36 25 -15 42 12 10 16 9 21 -4 7 -18
29 -21 39 -6 3 5 1 19 -5 30 -15 28 -54 25 -79 -6z"/>
<path d="M1910 230 c-27 -55 -50 -102 -50 -105 0 -12 31 -4 36 10 4 8 19 15
35 15 21 0 27 -4 23 -15 -4 -10 0 -15 15 -15 20 0 21 5 21 105 0 138 -13 139
-80 5z m50 0 c0 -29 -4 -40 -15 -40 -8 0 -15 3 -15 7 0 9 23 73 27 73 2 0 3
-18 3 -40z"/>
<path d="M1811 148 c-6 -17 -5 -24 6 -26 17 -4 19 -3 27 26 6 16 3 22 -9 22
-8 0 -19 -10 -24 -22z"/>
<path d="M2016 154 c-9 -24 -7 -34 8 -34 13 0 26 20 26 41 0 15 -27 10 -34 -7z"/>
<path d="M0 76 c0 -13 7 -26 15 -30 8 -3 15 -15 15 -26 0 -16 7 -20 30 -20 29
0 30 1 30 50 l0 50 -45 0 c-41 0 -45 -2 -45 -24z"/>
<path d="M0 20 c0 -11 5 -20 10 -20 6 0 10 9 10 20 0 11 -4 20 -10 20 -5 0
-10 -9 -10 -20z"/>
<path d="M260 15 c-11 -13 -6 -15 34 -15 45 0 61 12 30 24 -26 10 -51 7 -64
-9z"/>
</g>
</svg>
